<svg xmlns="http://www.w3.org/2000/svg" viewBox="0 0 512 512">
  <defs>
    <linearGradient id="bg" x1="0%" y1="0%" x2="100%" y2="100%">
      <stop offset="0%" stop-color="#0d7a79" />
      <stop offset="100%" stop-color="#f6b544" />
    </linearGradient>
    <linearGradient id="paper" x1="0%" y1="0%" x2="100%" y2="100%">
      <stop offset="0%" stop-color="#fffdf7" />
      <stop offset="100%" stop-color="#fff2cf" />
    </linearGradient>
  </defs>
  <rect width="512" height="512" rx="116" fill="url(#bg)" />
  <circle cx="122" cy="116" r="48" fill="#ffffff" fill-opacity="0.14" />
  <circle cx="410" cy="414" r="56" fill="#ffffff" fill-opacity="0.12" />
  <g transform="translate(86 72)">
    <rect x="28" y="48" width="284" height="272" rx="34" fill="url(#paper)" />
    <path d="M56 84c40-18 72-18 96 0s56 18 96 0 64-18 88 0v184c-24-18-48-18-88 0s-72 18-96 0-56-18-96 0V84z" fill="#ffffff" fill-opacity="0.72" />
    <path d="M56 92c40-18 72-18 96 0s56 18 96 0 64-18 88 0" fill="none" stroke="#23324a" stroke-opacity="0.2" stroke-width="12" stroke-linecap="round" />
    <path d="M56 134c40-18 72-18 96 0s56 18 96 0 64-18 88 0" fill="none" stroke="#23324a" stroke-opacity="0.15" stroke-width="10" stroke-linecap="round" />
    <path d="M108 166l24-28 34 18 36-34 38 26 34-24 26 28-14 26-34 18-46 2-26 28-38-10-20-30z" fill="#80b546" />
    <path d="M210 230l22-40 42-18 32 24-20 46-44 18z" fill="#d35575" />
    <circle cx="132" cy="110" r="18" fill="#f6b544" />
    <circle cx="272" cy="112" r="16" fill="#0d7a79" />
    <path d="M214 302c24-12 53-18 86-18" fill="none" stroke="#23324a" stroke-opacity="0.35" stroke-width="12" stroke-linecap="round" />
    <path d="M126 330h108" fill="none" stroke="#23324a" stroke-opacity="0.16" stroke-width="14" stroke-linecap="round" />
  </g>
</svg>
